<svg width="24" height="24" viewBox="0 0 24 24" fill="none" xmlns="http://www.w3.org/2000/svg">
  <path fill-rule="evenodd" clip-rule="evenodd" d="M0.0354871 18.0695C0.180803 17.5367 0.730544 17.2225 1.26337 17.3679L12.0003 20.2961L22.7371 17.3679C23.27 17.2225 23.8197 17.5367 23.965 18.0695C24.1103 18.6023 23.7962 19.1521 23.2634 19.2974L12.0003 22.3691L0.737134 19.2974C0.204309 19.1521 -0.109829 18.6023 0.0354871 18.0695ZM1.73633 16.5702L2.26256 14.6407L11.9994 18.3327L21.7363 14.6407L22.2626 16.5702L11.9994 19.3692L1.73633 16.5702ZM6.11067 12.1707L7.52678 15.5669L12 17.263L16.4736 15.5667L17.8894 12.1707C17.9744 11.9685 18.0112 11.7498 17.997 11.5314C17.9829 11.313 17.9181 11.1007 17.8076 10.9109L12.5 1.33262V8.42266C13.0826 8.62858 13.5 9.1842 13.5 9.83731C13.5 10.6657 12.8284 11.3373 12 11.3373C11.1716 11.3373 10.5 10.6657 10.5 9.83731C10.5 9.1842 10.9174 8.62858 11.5 8.42266V1.33262L6.19238 10.9109C6.08193 11.1007 6.01712 11.313 6.00296 11.5314C5.9888 11.7498 6.02564 11.9686 6.11067 12.1707Z" fill="#6DAE43"/>
</svg>
