<svg width="36" height="36" viewBox="0 0 36 36" fill="none" xmlns="http://www.w3.org/2000/svg">
<circle cx="18" cy="18" r="18" fill="white"/>
<path d="M18 27L17.8999 26.8499C17.2053 25.808 16.858 25.287 16.3991 24.9098C15.9929 24.5759 15.5248 24.3254 15.0216 24.1726C14.4533 24 13.8271 24 12.5748 24H11.2C10.0799 24 9.51984 24 9.09202 23.782C8.71569 23.5903 8.40973 23.2843 8.21799 22.908C8 22.4802 8 21.9201 8 20.8V12.2C8 11.0799 8 10.5198 8.21799 10.092C8.40973 9.71569 8.71569 9.40973 9.09202 9.21799C9.51984 9 10.0799 9 11.2 9H11.6C13.8402 9 14.9603 9 15.816 9.43597C16.5686 9.81947 17.1805 10.4314 17.564 11.184C18 12.0397 18 13.1598 18 15.4M18 27V15.4M18 27L18.1001 26.8499C18.7947 25.808 19.142 25.287 19.6009 24.9098C20.0071 24.5759 20.4752 24.3254 20.9784 24.1726C21.5467 24 22.1729 24 23.4252 24H24.8C25.9201 24 26.4802 24 26.908 23.782C27.2843 23.5903 27.5903 23.2843 27.782 22.908C28 22.4802 28 21.9201 28 20.8V12.2C28 11.0799 28 10.5198 27.782 10.092C27.5903 9.71569 27.2843 9.40973 26.908 9.21799C26.4802 9 25.9201 9 24.8 9H24.4C22.1598 9 21.0397 9 20.184 9.43597C19.4314 9.81947 18.8195 10.4314 18.436 11.184C18 12.0397 18 13.1598 18 15.4" stroke="#6DAE43" stroke-width="2" stroke-linecap="round" stroke-linejoin="round"/>
</svg>
