<svg width="70" height="100" viewBox="0 0 70 100" fill="none" xmlns="http://www.w3.org/2000/svg">
  <rect width="69.6203" height="100" fill="#F7F7F7"/>
  <path fill-rule="evenodd" clip-rule="evenodd" d="M22.3017 50.0081C22.2111 50.3536 21.7206 50.3536 21.63 50.0081L21.1299 48.1013H20.7765H19.3038L20.5469 52.8407C20.597 53.0315 20.7694 53.1646 20.9667 53.1646H21.4738H22.9465H23.3544L23.5675 52.3521C23.5761 52.3194 23.6057 52.2966 23.6395 52.2966H23.648C23.6818 52.2966 23.7114 52.3194 23.72 52.3521L23.9331 53.1646H24.341H25.8137H26.3208C26.5181 53.1646 26.6905 53.0315 26.7406 52.8407L27.9837 48.1013H26.511H26.1576L25.6575 50.0081C25.5669 50.3536 25.0764 50.3536 24.9858 50.0081L24.5706 48.4252C24.5206 48.2344 24.3481 48.1013 24.1508 48.1013H23.1367C22.9394 48.1013 22.7669 48.2344 22.7169 48.4252L22.3017 50.0081ZM27.9837 53.1646L29.2268 48.4252C29.2769 48.2344 29.4493 48.1013 29.6466 48.1013H32.1074C32.3047 48.1013 32.4771 48.2344 32.5272 48.4252L33.7703 53.1646H32.2976H32.1853L31.8818 52.0073H29.8722L29.5687 53.1646H29.4564H27.9837ZM30.2517 50.5606H31.5023L31.3217 49.8718C31.2716 49.681 31.0992 49.548 30.9019 49.548H30.8521C30.6548 49.548 30.4824 49.681 30.4323 49.8718L30.2517 50.5606ZM41.9573 48.4252L40.7142 53.1646H42.1869H42.2992L42.6028 52.0073H44.6123L44.9158 53.1646H45.0281H46.5008L45.2577 48.4252C45.2077 48.2344 45.0352 48.1013 44.8379 48.1013H42.3771C42.1798 48.1013 42.0074 48.2344 41.9573 48.4252ZM44.2328 50.5606H42.9822L43.1629 49.8718C43.2129 49.681 43.3854 49.548 43.5827 49.548H43.6324C43.8297 49.548 44.0021 49.681 44.0522 49.8718L44.2328 50.5606ZM35.9403 48.1013H34.349V49.8373V51.2839V53.1646H35.9403V51.2839H36.5189H37.194H37.2423H37.7225C37.9197 51.2839 38.0922 51.417 38.1422 51.6078L38.5506 53.1646H40.1356L39.3478 50.1612C39.3002 49.9796 39.1418 49.8504 38.9567 49.8382L39.4122 48.1013H37.8273L37.4569 49.5134C37.4068 49.7042 37.2344 49.8373 37.0371 49.8373H36.5189H35.9403V48.1013Z" fill="#AAAAAA"/>
  <path fill-rule="evenodd" clip-rule="evenodd" d="M49.573 47.5751C50.2756 48.2741 50.4801 49.2811 50.1866 50.1594C50.1866 50.1594 50.5977 48.9517 49.3935 47.7536C48.1894 46.5555 46.9755 46.9645 46.9755 46.9645C47.8583 46.6725 48.8704 46.876 49.573 47.5751ZM49.1243 48.0215C49.6513 48.5458 49.8047 49.301 49.5846 49.9597C49.5846 49.9597 49.8422 49.0928 48.9448 48.2C48.0475 47.3072 47.1762 47.5635 47.1762 47.5635C47.8383 47.3445 48.5974 47.4972 49.1243 48.0215ZM46.8906 50.2631C47.3862 50.7562 48.1897 50.7562 48.6852 50.2631C49.1808 49.77 49.1808 48.9705 48.6852 48.4774C48.1897 47.9844 47.3862 47.9844 46.8906 48.4774C46.395 48.9705 46.395 49.77 46.8906 50.2631Z" fill="#AAAAAA"/>
</svg>
