<svg width="36" height="36" viewBox="0 0 36 36" fill="none" xmlns="http://www.w3.org/2000/svg"><circle cx="18" cy="18" r="18" fill="url(#paint0_linear_7_118)"/><circle cx="18" cy="18" r="17" stroke="white" stroke-opacity="0.3" stroke-width="2"/><g filter="url(#filter0_d_7_118)"><path fill-rule="evenodd" clip-rule="evenodd" d="M18 18C20.4853 18 22.5 15.9853 22.5 13.5C22.5 11.0147 20.4853 9 18 9C15.5147 9 13.5 11.0147 13.5 13.5C13.5 15.9853 15.5147 18 18 18ZM18 27C22.9706 27 27 25.433 27 23.5C27 21.567 22.9706 20 18 20C13.0294 20 9 21.567 9 23.5C9 25.433 13.0294 27 18 27Z" fill="white"/></g><defs><filter id="filter0_d_7_118" x="7" y="9" width="22" height="22" filterUnits="userSpaceOnUse" color-interpolation-filters="sRGB"><feFlood flood-opacity="0" result="BackgroundImageFix"/><feColorMatrix in="SourceAlpha" type="matrix" values="0 0 0 0 0 0 0 0 0 0 0 0 0 0 0 0 0 0 127 0" result="hardAlpha"/><feOffset dy="2"/><feGaussianBlur stdDeviation="1"/><feComposite in2="hardAlpha" operator="out"/><feColorMatrix type="matrix" values="0 0 0 0 0 0 0 0 0 0 0 0 0 0 0 0 0 0 0.15 0"/><feBlend mode="normal" in2="BackgroundImageFix" result="effect1_dropShadow_7_118"/><feBlend mode="normal" in="SourceGraphic" in2="effect1_dropShadow_7_118" result="shape"/></filter><linearGradient id="paint0_linear_7_118" x1="18" y1="0" x2="18" y2="36" gradientUnits="userSpaceOnUse"><stop stop-color="#CF65F4"/><stop offset="1" stop-color="#952CB9"/></linearGradient></defs></svg>
