<svg width="24" height="24" viewBox="0 0 24 24" fill="none" xmlns="http://www.w3.org/2000/svg">
<path fill-rule="evenodd" clip-rule="evenodd" d="M0.0354871 18.0702C0.180803 17.5374 0.730544 17.2232 1.26337 17.3686L12.0003 20.2968L22.7371 17.3686C23.27 17.2232 23.8197 17.5374 23.965 18.0702C24.1103 18.603 23.7962 19.1528 23.2634 19.2981L12.0003 22.3698L0.737134 19.2981C0.204309 19.1528 -0.109829 18.603 0.0354871 18.0702ZM1.73633 16.5709L2.26256 14.6414L11.9994 18.3334L21.7363 14.6414L22.2626 16.5709L11.9994 19.3699L1.73633 16.5709ZM6.11067 12.1714L7.52678 15.5676L12 17.2637L16.4736 15.5674L17.8894 12.1714C17.9744 11.9693 18.0112 11.7505 17.997 11.5321C17.9829 11.3137 17.9181 11.1014 17.8076 10.9116L12.5 1.33332V8.42336C13.0826 8.62928 13.5 9.1849 13.5 9.83801C13.5 10.6664 12.8284 11.338 12 11.338C11.1716 11.338 10.5 10.6664 10.5 9.83801C10.5 9.1849 10.9174 8.62928 11.5 8.42336V1.33332L6.19238 10.9116C6.08193 11.1014 6.01712 11.3137 6.00296 11.5321C5.9888 11.7505 6.02564 11.9693 6.11067 12.1714Z" fill="#6DAE43"/>
</svg>
